<?xml version="1.0" standalone="no"?><!DOCTYPE svg PUBLIC "-//W3C//DTD SVG 1.1//EN" "http://www.w3.org/Graphics/SVG/1.1/DTD/svg11.dtd"><svg t="1612188125661" class="icon" viewBox="0 0 1024 1024" version="1.1" xmlns="http://www.w3.org/2000/svg" p-id="13016" xmlns:xlink="http://www.w3.org/1999/xlink" width="200" height="200"><defs><style type="text/css"></style></defs><path d="M276.128 646.496a276.096 276.096 0 0 1-36.192-135.52 271.872 271.872 0 0 1 272.032-272.032c100.352 0 188.416 54.944 235.52 135.84l163.488-94.208a77.44 77.44 0 0 0-29.696-28.672c-108.544-62.464-217.76-124.928-326.656-188.064-29.696-17.408-58.016-16.384-87.04 0.672-43.36 25.6-260.448 149.856-325.632 187.392-26.272 16.032-39.584 39.584-39.584 70.304V701.44c0 15.008 3.072 28.32 9.568 39.936l164.192-94.88z" fill="#5C8DBC" p-id="13017"></path><path d="M512 376.16a135.648 135.648 0 0 0-135.52 135.52c0 24.224 6.496 47.456 18.08 67.232l234.496-135.52a136.224 136.224 0 0 0-117.088-67.232z" fill="#5C8DBC" p-id="13018"></path><path d="M394.24 578.56c23.552 40.608 67.232 68.256 117.76 68.256s94.88-28 117.76-68.96l-116.736-67.584-118.784 68.256z" fill="#1A4674" p-id="13019"></path><path d="M748.192 646.496c-46.752 81.92-135.52 137.216-236.192 137.216s-189.088-55.296-235.872-136.544l-164.192 94.208c6.816 11.936 16.384 21.856 30.368 30.048 64.864 37.536 281.952 161.792 325.632 187.392 29.024 17.408 57.696 18.08 87.04 1.024 108.896-62.816 218.112-125.28 327.008-188.416 13.312-7.52 23.552-17.76 30.368-30.048l-214.688-123.552 50.528 28.672z" fill="#1A4674" p-id="13020"></path><path d="M921.6 321.888c0-15.36-3.072-29.024-9.888-40.96l-164.192 94.208-233.824 135.168 116.736 67.584 67.232 38.56 214.688 124.256c6.496-11.616 9.568-24.928 9.568-39.936-0.352 0.352-0.352-252.576-0.352-378.88z m-135.84 205.12h-31.072v31.072h-31.072v-31.072h-31.072v-31.072h31.072v-31.072h31.072v31.072h31.072v31.072z m113.664 0h-31.072v31.072h-31.072v-31.072h-31.072v-31.072h31.072v-31.072h31.072v31.072h31.072v31.072z" fill="#1B598E" p-id="13021"></path><path d="M868.352 464.544h-31.072v31.072h-31.072v31.392h31.072v31.072h31.072v-31.072h31.072v-31.392h-31.072zM754.336 464.544h-31.072v31.072h-31.072v31.392h31.072v31.072h31.072v-31.072h31.392v-31.392h-31.392z" fill="#FFFFFF" p-id="13022"></path><path d="M512 239.616a271.872 271.872 0 0 0-272.032 272.032 267.84 267.84 0 0 0 36.192 135.52 271.872 271.872 0 0 0 235.872 136.544 271.456 271.456 0 0 0 236.192-137.216l-51.552-30.048-67.232-38.56a134.4 134.4 0 0 1-117.76 68.96 136.448 136.448 0 0 1-117.76-68.256 135.584 135.584 0 0 1-18.08-67.232 135.648 135.648 0 0 1 135.52-135.52c49.824 0 93.536 27.296 117.408 67.584l118.112-68.256a271.456 271.456 0 0 0-234.848-135.52z" fill="#FFFFFF" p-id="13023"></path></svg>