<?xml version="1.0" standalone="no"?><!DOCTYPE svg PUBLIC "-//W3C//DTD SVG 1.1//EN" "http://www.w3.org/Graphics/SVG/1.1/DTD/svg11.dtd"><svg t="1612186800803" class="icon" viewBox="0 0 1024 1024" version="1.1" xmlns="http://www.w3.org/2000/svg" p-id="3456" xmlns:xlink="http://www.w3.org/1999/xlink" width="200" height="200"><defs><style type="text/css"></style></defs><path d="M0 0h1024v1024H0z" fill="#FFFFFF" p-id="3457"></path><path d="M219.221333 499.498667L80.896 358.570667H0v300.117333h80.896v-213.973333l135.68 140.928L360.106667 439.466667v214.016h80.896v-62.634667c-26.069333-26.112-39.125333-60.032-39.125334-96.554667 0-39.168 15.658667-73.088 39.125334-96.554666v-41.770667H360.106667l-140.885334 143.530667z" fill="#2C91DE" p-id="3458"></path><path d="M715.050667 556.928c-18.261333 0-31.317333 15.658667-31.317334 15.658667-57.429333 52.224-140.928 60.032-206.165333 18.261333 31.317333 46.976 83.498667 78.293333 143.530667 78.293333 49.578667 0 96.554667-20.864 127.872-57.386666 0 0 2.602667-13.056 2.602666-20.906667-5.205333-20.864-18.261333-33.92-36.522666-33.92z" fill="#ED4636" p-id="3459"></path><path d="M815.232 436.906667h70.442667v219.178666h-70.442667V436.906667z m138.325333-109.653334H1024v328.832h-70.442667V327.296z m-148.778666 44.373334c0 26.112 20.906667 44.373333 44.373333 44.373333 26.112 0 44.373333-20.864 44.373333-44.373333 0-23.466667-20.906667-44.373333-44.373333-44.373334s-44.373333 18.304-44.373333 44.373334z" fill="#2C91DE" p-id="3460"></path><path d="M652.373333 329.898667s-13.013333 2.602667-20.864 7.850666c-13.013333 10.410667-18.261333 28.672-7.808 44.373334 10.453333 15.616 28.714667 18.218667 28.714667 18.218666a183.466667 183.466667 0 0 1 96.554667 75.690667 166.4 166.4 0 0 1 20.906666 93.952c26.026667-49.578667 26.026667-109.610667-2.645333-161.792-26.112-39.168-67.84-70.442667-114.816-78.293333z" fill="#82D531" p-id="3461"></path><path d="M519.338667 546.517333c10.453333-15.658667 2.602667-33.92 2.602666-33.92-10.410667-41.813333-2.56-83.541333 18.261334-120.064 15.658667-28.714667 41.813333-49.578667 70.485333-65.28a169.557333 169.557333 0 0 0-138.325333 83.541334 170.453333 170.453333 0 0 0-13.056 138.325333s7.850667 7.808 18.304 13.056c13.013333 7.808 31.274667 2.56 41.728-15.658667z" fill="#F8BE32" p-id="3462"></path><path d="M678.485333 517.802667c-2.56-13.056-13.013333-23.466667-13.013333-23.466667 2.56-13.056-2.602667-13.056-2.602667-13.056 0-39.168-33.962667-36.522667-33.962666-36.522667s-33.92 0-33.92 36.522667c0 0-5.205333 2.56-2.56 13.056 0 0-10.496 7.808-13.098667 23.466667 0 0-2.56 23.466667 10.453333 2.602666 0 0 2.602667 7.850667 7.808 13.056 0 0-7.808 2.602667-7.808 10.453334 0 0 0 7.808 18.261334 7.808 0 0 13.056 0 18.261333-7.808h5.248c5.205333 5.205333 18.261333 7.808 18.261333 7.808 20.864 0 18.261333-7.808 18.261334-7.808 0-7.850667-7.850667-10.453333-7.850667-10.453334 5.248-7.850667 7.850667-13.056 7.850667-13.056 13.056 20.906667 10.410667-2.602667 10.410666-2.602666z" fill="#1599FF" p-id="3463"></path></svg>